<?xml version="1.0" encoding="UTF-8"?>
<svg width="354px" height="79px" viewBox="0 0 354 79" version="1.1" xmlns="http://www.w3.org/2000/svg" xmlns:xlink="http://www.w3.org/1999/xlink">
    <!-- Generator: Sketch 60.1 (88133) - https://sketch.com -->
    <title>nav-logo</title>
    <desc>Created with Sketch.</desc>
    <g id="Wiregrame" stroke="none" stroke-width="1" fill="none" fill-rule="evenodd">
        <g id="Homepage" transform="translate(-120.000000, -11.000000)">
            <g id="navbar">
                <g id="nav-logo" transform="translate(120.000000, 11.000000)">
                    <g id="logo-shapes">
                        <polygon id="Rectangle" fill="#F79D84" points="21.024204 20.8404121 26.4142475 0.202829683 31.8042909 20.8404121 26.4142475 40.6242178"></polygon>
                        <path d="M47.8976136,20.6375824 L53.100904,0.0105927617 L59.9134009,20.6375824 L73.4197534,58.2890936 L73.3276136,58.2885928 L73.3477711,58.340401 L68.6684045,78.4974003 L61.5176136,58.3395928 L61.5,58.340401 L54.1741562,38.1834016 L47.8976136,20.6375824 Z" id="Combined-Shape" fill="#F79D84"></path>
                        <polygon id="Rectangle-Copy-3" fill="#F79D84" points="89.599326 58.0514991 94.9473662 38.1685393 100.295406 58.2965247 94.8209326 78.4096478"></polygon>
                        <path d="M0,40.5168283 L6.69785441,40.5168283 C12.1682018,40.5168283 16.9461862,36.8172136 18.3157078,31.5210724 L26.4142475,0.202829683 L26.4142475,0.202829683 L18.7052685,0.202829683 C13.0975519,0.202829683 8.23754529,4.08659554 7.00076142,9.55622548 L0,40.5168283 L0,40.5168283 Z" id="Path" fill="#F1FAEE"></path>
                        <path d="M68.6684045,78.4974003 L75.3402642,78.4974003 C80.8227024,78.4974003 85.6080217,74.78174 86.9662037,69.4701989 L94.9663612,38.1834016 L94.9663612,38.1834016 L87.3736731,38.1834016 C81.7659564,38.1834016 76.9059498,42.0671675 75.669166,47.5367974 L68.6684045,78.4974003 L68.6684045,78.4974003 Z" id="Path-Copy-3" fill="#F1FAEE"></path>
                        <path d="M94.8209326,78.4974003 L102.930063,78.4974003 C108.499859,78.4974003 113.337512,74.6648741 114.611791,69.2428048 L121.911279,38.1834016 L121.911279,38.1834016 L114.784206,38.1834016 C109.34674,38.1834016 104.588814,41.8395399 103.188792,47.0936789 L94.8209326,78.4974003 L94.8209326,78.4974003 Z" id="Path-Copy-4" fill="#F1FAEE"></path>
                        <path d="M26.2511595,40.3139986 L34.1249404,40.3139986 C39.6947359,40.3139986 44.5323893,36.4814725 45.8066678,31.0594032 L53.1061556,0 L53.1061556,0 L46.0312849,0 C40.5694506,6.33239321e-15 35.7966439,3.68833611 34.4191782,8.97361972 L26.2511595,40.3139986 L26.2511595,40.3139986 Z" id="Path-Copy" fill="#F1FAEE"></path>
                        <ellipse id="Oval" fill="#F79D84" cx="6.65535926" cy="54.5773267" rx="6.65535926" ry="6.64474242"></ellipse>
                        <ellipse id="Oval-Copy" fill="#F1FAEE" cx="36.7416902" cy="54.5773267" rx="6.65535926" ry="6.64474242"></ellipse>
                        <ellipse id="Oval-Copy-2" fill="#F1FAEE" cx="88.0654312" cy="24.3975514" rx="6.65535926" ry="6.64474242"></ellipse>
                        <ellipse id="Oval-Copy-3" fill="#F79D84" cx="115.497086" cy="24.3975514" rx="6.65535926" ry="6.64474242"></ellipse>
                    </g>
                    <text id="Meals-on-Wheels-of-C" font-family="TeluguMN, Telugu MN" font-size="22.5" font-weight="normal" letter-spacing="2.114191" fill="#F1FAEE">
                        <tspan x="149" y="35">Meals on Wheels </tspan>
                        <tspan x="149" y="61">of Cheyenne</tspan>
                    </text>
                </g>
            </g>
        </g>
    </g>
</svg>